<svg width="1000" height="812" viewBox="0 0 1000 812" class="keymap" xmlns="http://www.w3.org/2000/svg" xmlns:xlink="http://www.w3.org/1999/xlink">
<defs>/* start glyphs */
<svg id="mdi:content-copy">
<svg xmlns="http://www.w3.org/2000/svg" id="mdi-content-copy" viewBox="0 0 24 24"><path d="M19,21H8V7H19M19,5H8A2,2 0 0,0 6,7V21A2,2 0 0,0 8,23H19A2,2 0 0,0 21,21V7A2,2 0 0,0 19,5M16,1H4A2,2 0 0,0 2,3V17H4V3H16V1Z" /></svg>
</svg>
<svg id="mdi:content-cut">
<svg xmlns="http://www.w3.org/2000/svg" id="mdi-content-cut" viewBox="0 0 24 24"><path d="M19,3L13,9L15,11L22,4V3M12,12.5A0.5,0.5 0 0,1 11.5,12A0.5,0.5 0 0,1 12,11.5A0.5,0.5 0 0,1 12.5,12A0.5,0.5 0 0,1 12,12.5M6,20A2,2 0 0,1 4,18C4,16.89 4.9,16 6,16A2,2 0 0,1 8,18C8,19.11 7.1,20 6,20M6,8A2,2 0 0,1 4,6C4,4.89 4.9,4 6,4A2,2 0 0,1 8,6C8,7.11 7.1,8 6,8M9.64,7.64C9.87,7.14 10,6.59 10,6A4,4 0 0,0 6,2A4,4 0 0,0 2,6A4,4 0 0,0 6,10C6.59,10 7.14,9.87 7.64,9.64L10,12L7.64,14.36C7.14,14.13 6.59,14 6,14A4,4 0 0,0 2,18A4,4 0 0,0 6,22A4,4 0 0,0 10,18C10,17.41 9.87,16.86 9.64,16.36L12,14L19,21H22V20L9.64,7.64Z" /></svg>
</svg>
<svg id="mdi:content-paste">
<svg xmlns="http://www.w3.org/2000/svg" id="mdi-content-paste" viewBox="0 0 24 24"><path d="M19,20H5V4H7V7H17V4H19M12,2A1,1 0 0,1 13,3A1,1 0 0,1 12,4A1,1 0 0,1 11,3A1,1 0 0,1 12,2M19,2H14.82C14.4,0.84 13.3,0 12,0C10.7,0 9.6,0.84 9.18,2H5A2,2 0 0,0 3,4V20A2,2 0 0,0 5,22H19A2,2 0 0,0 21,20V4A2,2 0 0,0 19,2Z" /></svg>
</svg>
<svg id="mdi:magnify">
<svg xmlns="http://www.w3.org/2000/svg" id="mdi-magnify" viewBox="0 0 24 24"><path d="M9.5,3A6.5,6.5 0 0,1 16,9.5C16,11.11 15.41,12.59 14.44,13.73L14.71,14H15.5L20.5,19L19,20.5L14,15.5V14.71L13.73,14.44C12.59,15.41 11.11,16 9.5,16A6.5,6.5 0 0,1 3,9.5A6.5,6.5 0 0,1 9.5,3M9.5,5C7,5 5,7 5,9.5C5,12 7,14 9.5,14C12,14 14,12 14,9.5C14,7 12,5 9.5,5Z" /></svg>
</svg>
<svg id="mdi:progress-download">
<svg xmlns="http://www.w3.org/2000/svg" id="mdi-progress-download" viewBox="0 0 24 24"><path d="M13,2.03C17.73,2.5 21.5,6.25 21.95,11C22.5,16.5 18.5,21.38 13,21.93V19.93C16.64,19.5 19.5,16.61 19.96,12.97C20.5,8.58 17.39,4.59 13,4.05V2.05L13,2.03M11,2.06V4.06C9.57,4.26 8.22,4.84 7.1,5.74L5.67,4.26C7.19,3 9.05,2.25 11,2.06M4.26,5.67L5.69,7.1C4.8,8.23 4.24,9.58 4.05,11H2.05C2.25,9.04 3,7.19 4.26,5.67M2.06,13H4.06C4.24,14.42 4.81,15.77 5.69,16.9L4.27,18.33C3.03,16.81 2.26,14.96 2.06,13M7.1,18.37C8.23,19.25 9.58,19.82 11,20V22C9.04,21.79 7.18,21 5.67,19.74L7.1,18.37M12,16.5L7.5,12H11V8H13V12H16.5L12,16.5Z" /></svg>
</svg>
<svg id="mdi:redo-variant">
<svg xmlns="http://www.w3.org/2000/svg" id="mdi-redo-variant" viewBox="0 0 24 24"><path d="M10.5,7A6.5,6.5 0 0,0 4,13.5A6.5,6.5 0 0,0 10.5,20H14V18H10.5C8,18 6,16 6,13.5C6,11 8,9 10.5,9H16.17L13.09,12.09L14.5,13.5L20,8L14.5,2.5L13.08,3.91L16.17,7H10.5M18,18H16V20H18V18Z" /></svg>
</svg>
<svg id="mdi:restart">
<svg xmlns="http://www.w3.org/2000/svg" id="mdi-restart" viewBox="0 0 24 24"><path d="M12,4C14.1,4 16.1,4.8 17.6,6.3C20.7,9.4 20.7,14.5 17.6,17.6C15.8,19.5 13.3,20.2 10.9,19.9L11.4,17.9C13.1,18.1 14.9,17.5 16.2,16.2C18.5,13.9 18.5,10.1 16.2,7.7C15.1,6.6 13.5,6 12,6V10.6L7,5.6L12,0.6V4M6.3,17.6C3.7,15 3.3,11 5.1,7.9L6.6,9.4C5.5,11.6 5.9,14.4 7.8,16.2C8.3,16.7 8.9,17.1 9.6,17.4L9,19.4C8,19 7.1,18.4 6.3,17.6Z" /></svg>
</svg>
<svg id="mdi:undo-variant">
<svg xmlns="http://www.w3.org/2000/svg" id="mdi-undo-variant" viewBox="0 0 24 24"><path d="M13.5,7A6.5,6.5 0 0,1 20,13.5A6.5,6.5 0 0,1 13.5,20H10V18H13.5C16,18 18,16 18,13.5C18,11 16,9 13.5,9H7.83L10.91,12.09L9.5,13.5L4,8L9.5,2.5L10.92,3.91L7.83,7H13.5M6,18H8V20H6V18Z" /></svg>
</svg>
</defs>/* end glyphs */
<style>svg path { fill: inherit; }

svg.keymap {
    --color-bg:      #7c6f64;
    --color-key:     #fbf1c7;
    --color-text:    #3c3836;
    --color-ghost:   #928374;
    --color-dendron: #d5c4a1;
    --color-held:    #bdae93;

    --color-fn:      #458588;
    --color-nav:     #d79921;
    --color-num:     #d65d0e;
    --color-sys:     #689d6a;

    fill: var(--color-text);
    background-color: var(--color-bg);
    font-family: Calibri, system-ui, sans-serif;
    font-size: 16px;
    font-kerning: normal;
    text-rendering: optimizeLegibility;
}

text {
    text-anchor: middle;
    dominant-baseline: middle;
    letter-spacing: 0.02em;
}

text.tap     { font-weight: 500; }
text.hold    { font-weight: 400; font-size: 13px; }
text.shifted { font-weight: 400; font-size: 11px; }
text.combo, text.left, text.right, text.tl, text.tr, text.bl, text.br { font-size: 10px; }

text.hold, text.bl, text.br    { text-anchor: middle; dominant-baseline: auto; }
text.shifted, text.tl, text.tr { text-anchor: middle; dominant-baseline: hanging; }
text.left, text.tl, text.bl    { text-anchor: start; }
text.right, text.tr, text.br   { text-anchor: end; }

text.layer-activator { text-decoration: underline; }
text.combo.hold, text.combo.shifted, text.combo.left, text.combo.right { font-size: 8px; }

text.label, text.footer {
    fill: var(--color-key);
    stroke: var(--color-bg);
    stroke-width: 4;
    paint-order: stroke;
}
text.label  { font-weight: bold; text-anchor: start; }
text.footer { text-anchor: end; dominant-baseline: auto; }

rect.key, rect.combo, rect.combo-separate { fill: var(--color-key); stroke-width: 0; }
rect.held, rect.combo.held                { fill: var(--color-held); }
.layer-Combos rect.key                    { fill: var(--color-ghost); }

path.combo { stroke: var(--color-dendron); stroke-width: 2; stroke-dasharray: 2, 3; opacity: 0.45; fill: none; }

text.tl, use.tl { fill: var(--color-fn); }
text.tr, use.tr { fill: var(--color-nav); }
text.bl, use.bl { fill: var(--color-num); }
text.br, use.br { fill: var(--color-sys); }

.keypos-30 text.hold { fill: var(--color-nav); }
.keypos-31 text.hold { fill: var(--color-fn); }
.keypos-32 text.hold { fill: var(--color-num); font-size: 15px; }
.keypos-32 text.tap  { fill: var(--color-num); }
.keypos-33 text.hold { font-size: 15px; }

.icon-tabler > path                             { fill: inherit; stroke: inherit; stroke-width: 2; }
.icon-tabler > path[stroke="none"][fill="none"] { visibility: hidden; }

@media (prefers-color-scheme: dark) {
    svg.keymap {
        --color-bg:      #a89984;
        --color-key:     #282828;
        --color-text:    #ebdbb2;
        --color-ghost:   #928374;
        --color-dendron: #504945;
        --color-held:    #665c54;

        --color-fn:      #458588;
        --color-nav:     #fabd2f;
        --color-num:     #d65d0e;
        --color-sys:     #689d6a;
    }
}
</style>
<g transform="translate(10, 0)" class="layer-Base">
<g transform="translate(0, 10)">
<g transform="translate(28, 73)" class="key keypos-0">
<rect rx="6" ry="6" x="-26" y="-26" width="52" height="52" class="key"/>
</g>
<g transform="translate(84, 50)" class="key keypos-1">
<rect rx="6" ry="6" x="-26" y="-26" width="52" height="52" class="key"/>
<text x="0" y="1" class="key tap">B</text>
<text x="-22" y="-22" class="key tl">Enter</text>
<text x="22" y="-22" class="key tr">Enter</text>
<text x="-22" y="22" class="key bl">Enter</text>
<text x="22" y="22" class="key br">BT 1</text>
</g>
<g transform="translate(140, 39)" class="key keypos-2">
<rect rx="6" ry="6" x="-26" y="-26" width="52" height="52" class="key"/>
<text x="0" y="1" class="key tap">F</text>
<text x="-22" y="-22" class="key tl">Spc</text>
<text x="22" y="-22" class="key tr">Spc</text>
<text x="-22" y="22" class="key bl">Spc</text>
<text x="22" y="22" class="key br">BT 2</text>
</g>
<g transform="translate(196, 28)" class="key keypos-3">
<rect rx="6" ry="6" x="-26" y="-26" width="52" height="52" class="key"/>
<text x="0" y="1" class="key tap">L</text>
<text x="-22" y="-22" class="key tl">Tab</text>
<text x="22" y="-22" class="key tr">Tab</text>
<text x="-22" y="22" class="key bl">Tab</text>
<text x="22" y="22" class="key br">BT 3</text>
</g>
<g transform="translate(252, 39)" class="key keypos-4">
<rect rx="6" ry="6" x="-26" y="-26" width="52" height="52" class="key"/>
<text x="0" y="1" class="key tap">K</text>
<text x="-22" y="-22" class="key tl">Bspc</text>
<text x="22" y="-22" class="key tr">Bspc</text>
<text x="-22" y="22" class="key bl">Bspc</text>
<text x="22" y="22" class="key br">BT 4</text>
</g>
<g transform="translate(308, 50)" class="key keypos-5">
<rect rx="6" ry="6" x="-26" y="-26" width="52" height="52" class="key"/>
<text x="0" y="1" class="key tap">Q</text>
<use href="#mdi:content-cut" xlink:href="#mdi:content-cut" x="12" y="-22" height="10" width="10.0" class="key tr glyph mdi:content-cut"/>
<text x="22" y="22" class="key br">BT CLR</text>
</g>
<g transform="translate(672, 50)" class="key keypos-6">
<rect rx="6" ry="6" x="-26" y="-26" width="52" height="52" class="key"/>
<text x="0" y="1" class="key tap">P</text>
<use href="#mdi:content-cut" xlink:href="#mdi:content-cut" x="12" y="-22" height="10" width="10.0" class="key tr glyph mdi:content-cut"/>
<text x="-22" y="22" class="key bl">/</text>
<text x="22" y="22" class="key br">BT 1</text>
</g>
<g transform="translate(728, 39)" class="key keypos-7">
<rect rx="6" ry="6" x="-26" y="-26" width="52" height="52" class="key"/>
<text x="0" y="1" class="key tap">G</text>
<text x="-22" y="-22" class="key tl">F7</text>
<text x="22" y="-22" class="key tr">Bspc</text>
<text x="-22" y="22" class="key bl">7</text>
<text x="22" y="22" class="key br">BT 2</text>
</g>
<g transform="translate(784, 28)" class="key keypos-8">
<rect rx="6" ry="6" x="-26" y="-26" width="52" height="52" class="key"/>
<text x="0" y="1" class="key tap">O</text>
<text x="-22" y="-22" class="key tl">F8</text>
<use href="#mdi:undo-variant" xlink:href="#mdi:undo-variant" x="12" y="-22" height="10" width="10.0" class="key tr glyph mdi:undo-variant"/>
<text x="-22" y="22" class="key bl">8</text>
<text x="22" y="22" class="key br">BT 3</text>
</g>
<g transform="translate(840, 39)" class="key keypos-9">
<rect rx="6" ry="6" x="-26" y="-26" width="52" height="52" class="key"/>
<text x="0" y="1" class="key tap">U</text>
<text x="-22" y="-22" class="key tl">F9</text>
<use href="#mdi:redo-variant" xlink:href="#mdi:redo-variant" x="12" y="-22" height="10" width="10.0" class="key tr glyph mdi:redo-variant"/>
<text x="-22" y="22" class="key bl">9</text>
<text x="22" y="22" class="key br">BT 4</text>
</g>
<g transform="translate(896, 50)" class="key keypos-10">
<rect rx="6" ry="6" x="-26" y="-26" width="52" height="52" class="key"/>
<text x="0" y="1" class="key tap">.</text>
<text x="0" y="-22" class="key shifted">:</text>
<text x="-22" y="-22" class="key tl">F10</text>
<text x="22" y="-22" class="key tr">Del</text>
<text x="-22" y="22" class="key bl">-</text>
<text x="22" y="22" class="key br">BT CLR</text>
</g>
<g transform="translate(952, 73)" class="key keypos-11">
<rect rx="6" ry="6" x="-26" y="-26" width="52" height="52" class="key"/>
</g>
<g transform="translate(28, 129)" class="key keypos-12">
<rect rx="6" ry="6" x="-26" y="-26" width="52" height="52" class="key"/>
</g>
<g transform="translate(84, 106)" class="key keypos-13">
<rect rx="6" ry="6" x="-26" y="-26" width="52" height="52" class="key"/>
<text x="0" y="1" class="key tap">N</text>
<text x="0" y="22" class="key hold">Gui</text>
<text x="-22" y="-22" class="key tl">Gui</text>
<text x="22" y="-22" class="key tr">Gui</text>
<text x="-22" y="22" class="key bl">Gui</text>
</g>
<g transform="translate(140, 95)" class="key keypos-14">
<rect rx="6" ry="6" x="-26" y="-26" width="52" height="52" class="key"/>
<text x="0" y="1" class="key tap">S</text>
<text x="0" y="22" class="key hold">Alt</text>
<text x="-22" y="-22" class="key tl">Alt</text>
<text x="22" y="-22" class="key tr">Alt</text>
<text x="-22" y="22" class="key bl">Alt</text>
</g>
<g transform="translate(196, 84)" class="key keypos-15">
<rect rx="6" ry="6" x="-26" y="-26" width="52" height="52" class="key"/>
<text x="0" y="1" class="key tap">H</text>
<text x="0" y="22" class="key hold">Ctrl</text>
<text x="-22" y="-22" class="key tl">Ctrl</text>
<text x="22" y="-22" class="key tr">Ctrl</text>
<text x="-22" y="22" class="key bl">Ctrl</text>
</g>
<g transform="translate(252, 95)" class="key keypos-16">
<rect rx="6" ry="6" x="-26" y="-26" width="52" height="52" class="key"/>
<text x="0" y="1" class="key tap">T</text>
<text x="0" y="22" class="key hold">Shift</text>
<text x="-22" y="-22" class="key tl">Shift</text>
<text x="22" y="-22" class="key tr">Shift</text>
<text x="-22" y="22" class="key bl">Shift</text>
</g>
<g transform="translate(308, 106)" class="key keypos-17">
<rect rx="6" ry="6" x="-26" y="-26" width="52" height="52" class="key"/>
<text x="0" y="1" class="key tap">M</text>
<use href="#mdi:content-copy" xlink:href="#mdi:content-copy" x="12" y="-22" height="10" width="10.0" class="key tr glyph mdi:content-copy"/>
<use href="#mdi:progress-download" xlink:href="#mdi:progress-download" x="12" y="12" height="10" width="10.0" class="key br glyph mdi:progress-download"/>
</g>
<g transform="translate(672, 106)" class="key keypos-18">
<rect rx="6" ry="6" x="-26" y="-26" width="52" height="52" class="key"/>
<text x="0" y="1" class="key tap">Y</text>
<use href="#mdi:content-copy" xlink:href="#mdi:content-copy" x="12" y="-22" height="10" width="10.0" class="key tr glyph mdi:content-copy"/>
<text x="-22" y="22" class="key bl">*</text>
<use href="#mdi:progress-download" xlink:href="#mdi:progress-download" x="12" y="12" height="10" width="10.0" class="key br glyph mdi:progress-download"/>
</g>
<g transform="translate(728, 95)" class="key keypos-19">
<rect rx="6" ry="6" x="-26" y="-26" width="52" height="52" class="key"/>
<text x="0" y="1" class="key tap">C</text>
<text x="0" y="22" class="key hold">Shift</text>
<text x="-22" y="-22" class="key tl">F4</text>
<text x="22" y="-22" class="key tr">←</text>
<text x="-22" y="22" class="key bl">4</text>
</g>
<g transform="translate(784, 84)" class="key keypos-20">
<rect rx="6" ry="6" x="-26" y="-26" width="52" height="52" class="key"/>
<text x="0" y="1" class="key tap">A</text>
<text x="0" y="22" class="key hold">Ctrl</text>
<text x="-22" y="-22" class="key tl">F5</text>
<text x="22" y="-22" class="key tr">↓</text>
<text x="-22" y="22" class="key bl">5</text>
</g>
<g transform="translate(840, 95)" class="key keypos-21">
<rect rx="6" ry="6" x="-26" y="-26" width="52" height="52" class="key"/>
<text x="0" y="1" class="key tap">E</text>
<text x="0" y="22" class="key hold">Alt</text>
<text x="-22" y="-22" class="key tl">F6</text>
<text x="22" y="-22" class="key tr">↑</text>
<text x="-22" y="22" class="key bl">6</text>
</g>
<g transform="translate(896, 106)" class="key keypos-22">
<rect rx="6" ry="6" x="-26" y="-26" width="52" height="52" class="key"/>
<text x="0" y="1" class="key tap">I</text>
<text x="0" y="22" class="key hold">Gui</text>
<text x="-22" y="-22" class="key tl">F11</text>
<text x="22" y="-22" class="key tr">→</text>
<text x="-22" y="22" class="key bl">+</text>
</g>
<g transform="translate(952, 129)" class="key keypos-23">
<rect rx="6" ry="6" x="-26" y="-26" width="52" height="52" class="key"/>
</g>
<g transform="translate(28, 185)" class="key keypos-24">
<rect rx="6" ry="6" x="-26" y="-26" width="52" height="52" class="key"/>
</g>
<g transform="translate(84, 162)" class="key keypos-25">
<rect rx="6" ry="6" x="-26" y="-26" width="52" height="52" class="key"/>
<text x="0" y="1" class="key tap">X</text>
<use href="#mdi:magnify" xlink:href="#mdi:magnify" x="12" y="-22" height="10" width="10.0" class="key tr glyph mdi:magnify"/>
</g>
<g transform="translate(140, 151)" class="key keypos-26">
<rect rx="6" ry="6" x="-26" y="-26" width="52" height="52" class="key"/>
<text x="0" y="1" class="key tap">V</text>
<text x="22" y="-22" class="key tr"><tspan style="font-size: 88%">SLC LINE</tspan></text>
</g>
<g transform="translate(196, 140)" class="key keypos-27">
<rect rx="6" ry="6" x="-26" y="-26" width="52" height="52" class="key"/>
<text x="0" y="1" class="key tap">J</text>
<text x="22" y="-22" class="key tr">SLC WRD</text>
</g>
<g transform="translate(252, 151)" class="key keypos-28">
<rect rx="6" ry="6" x="-26" y="-26" width="52" height="52" class="key"/>
<text x="0" y="1" class="key tap">D</text>
<text x="22" y="-22" class="key tr">SLC ALL</text>
</g>
<g transform="translate(308, 162)" class="key keypos-29">
<rect rx="6" ry="6" x="-26" y="-26" width="52" height="52" class="key"/>
<text x="0" y="1" class="key tap">Z</text>
<use href="#mdi:content-paste" xlink:href="#mdi:content-paste" x="12" y="-22" height="10" width="10.0" class="key tr glyph mdi:content-paste"/>
<use href="#mdi:restart" xlink:href="#mdi:restart" x="12" y="12" height="10" width="10.0" class="key br glyph mdi:restart"/>
</g>
<g transform="translate(672, 162)" class="key keypos-30">
<rect rx="6" ry="6" x="-26" y="-26" width="52" height="52" class="key"/>
<text x="0" y="1" class="key tap">&#x27;</text>
<use href="#mdi:content-paste" xlink:href="#mdi:content-paste" x="12" y="-22" height="10" width="10.0" class="key tr glyph mdi:content-paste"/>
<text x="-22" y="22" class="key bl">,</text>
<use href="#mdi:restart" xlink:href="#mdi:restart" x="12" y="12" height="10" width="10.0" class="key br glyph mdi:restart"/>
</g>
<g transform="translate(728, 151)" class="key keypos-31">
<rect rx="6" ry="6" x="-26" y="-26" width="52" height="52" class="key"/>
<text x="0" y="1" class="key tap">W</text>
<text x="-22" y="-22" class="key tl">F1</text>
<text x="22" y="-22" class="key tr">Sft+Tab</text>
<text x="-22" y="22" class="key bl">1</text>
</g>
<g transform="translate(784, 140)" class="key keypos-32">
<rect rx="6" ry="6" x="-26" y="-26" width="52" height="52" class="key"/>
<text x="0" y="1" class="key tap">?</text>
<text x="0" y="-22" class="key shifted">!</text>
<text x="-22" y="-22" class="key tl">F2</text>
<text x="22" y="-22" class="key tr">PgDn</text>
<text x="-22" y="22" class="key bl">2</text>
</g>
<g transform="translate(840, 151)" class="key keypos-33">
<rect rx="6" ry="6" x="-26" y="-26" width="52" height="52" class="key"/>
<text x="0" y="1" class="key tap">-</text>
<text x="-22" y="-22" class="key tl">F3</text>
<text x="22" y="-22" class="key tr">PgUp</text>
<text x="-22" y="22" class="key bl">3</text>
</g>
<g transform="translate(896, 162)" class="key keypos-34">
<rect rx="6" ry="6" x="-26" y="-26" width="52" height="52" class="key"/>
<text x="0" y="1" class="key tap">,</text>
<text x="0" y="-22" class="key shifted">;</text>
<text x="-22" y="-22" class="key tl">F12</text>
<text x="22" y="-22" class="key tr">Tab</text>
<text x="-22" y="22" class="key bl">=</text>
</g>
<g transform="translate(952, 185)" class="key keypos-35">
<rect rx="6" ry="6" x="-26" y="-26" width="52" height="52" class="key"/>
</g>
<g transform="translate(140, 207)" class="key keypos-36">
<rect rx="6" ry="6" x="-26" y="-26" width="52" height="52" class="key"/>
</g>
<g transform="translate(196, 196)" class="key keypos-37">
<rect rx="6" ry="6" x="-26" y="-26" width="52" height="52" class="key"/>
</g>
<g transform="translate(784, 196)" class="key keypos-38">
<rect rx="6" ry="6" x="-26" y="-26" width="52" height="52" class="key"/>
</g>
<g transform="translate(840, 207)" class="key keypos-39">
<rect rx="6" ry="6" x="-26" y="-26" width="52" height="52" class="key"/>
</g>
<g transform="translate(344, 232) rotate(15.0)" class="key keypos-40">
<rect rx="6" ry="6" x="-26" y="-26" width="52" height="52" class="key"/>
<text x="0" y="1" class="key tap">Esc</text>
<text x="0" y="22" class="key hold">Num</text>
<text x="-22" y="-22" class="key tl">Esc</text>
</g>
<g transform="translate(399, 255) rotate(20.0)" class="key keypos-41">
<rect rx="6" ry="6" x="-26" y="-26" width="52" height="52" class="key"/>
<text x="0" y="1" class="key tap">Magic</text>
<text x="0" y="22" class="key hold">Shift</text>
</g>
<g transform="translate(451, 279) rotate(25.0)" class="key keypos-42">
<rect rx="6" ry="6" x="-26" y="-26" width="52" height="52" class="key"/>
<text x="0" y="1" class="key tap">R</text>
<text x="0" y="22" class="key hold">Nav</text>
</g>
<g transform="translate(528, 277) rotate(-25.0)" class="key keypos-43">
<rect rx="6" ry="6" x="-26" y="-26" width="52" height="52" class="key"/>
<text x="0" y="1" class="key tap">Spc</text>
<text x="0" y="22" class="key hold">Sym</text>
<text x="0" y="-22" class="key shifted"><tspan style="font-size: 88%">Sentence</tspan></text>
<text x="22" y="-22" class="key tr">SLC WRD</text>
<text x="-22" y="22" class="key bl">0</text>
</g>
<g transform="translate(581, 253) rotate(-20.0)" class="key keypos-44">
<rect rx="6" ry="6" x="-26" y="-26" width="52" height="52" class="key"/>
<text x="0" y="1" class="key tap">Enter</text>
<text x="0" y="22" class="key hold">Fn</text>
<text x="22" y="-22" class="key tr"><tspan style="font-size: 88%">SLC LINE</tspan></text>
<text x="-22" y="22" class="key bl">Enter</text>
</g>
<g transform="translate(636, 232) rotate(-15.0)" class="key keypos-45">
<rect rx="6" ry="6" x="-26" y="-26" width="52" height="52" class="key"/>
<text x="0" y="1" class="key tap">Bspc</text>
<text x="0" y="22" class="key hold"><tspan style="font-size: 88%">Ctl+Bspc</tspan></text>
<text x="22" y="-22" class="key tr">EXT WRD</text>
<text x="-22" y="22" class="key bl">.</text>
</g>
<g transform="translate(327, 286) rotate(15.0)" class="key keypos-46">
<rect rx="6" ry="6" x="-26" y="-26" width="52" height="52" class="key"/>
</g>
<g transform="translate(380, 307) rotate(20.0)" class="key keypos-47">
<rect rx="6" ry="6" x="-26" y="-26" width="52" height="52" class="key"/>
</g>
<g transform="translate(432, 331) rotate(25.0)" class="key keypos-48">
<rect rx="6" ry="6" x="-26" y="-26" width="52" height="52" class="key"/>
</g>
<g transform="translate(547, 329) rotate(-25.0)" class="key keypos-49">
<rect rx="6" ry="6" x="-26" y="-26" width="52" height="52" class="key"/>
</g>
<g transform="translate(600, 306) rotate(-20.0)" class="key keypos-50">
<rect rx="6" ry="6" x="-26" y="-26" width="52" height="52" class="key"/>
</g>
<g transform="translate(653, 285) rotate(-15.0)" class="key keypos-51">
<rect rx="6" ry="6" x="-26" y="-26" width="52" height="52" class="key"/>
</g>
</g>
</g>
<g transform="translate(10, 378)" class="layer-Combos">
<g transform="translate(0, 55)">
<g transform="translate(28, 73)" class="key keypos-0">
<rect rx="6" ry="6" x="-26" y="-26" width="52" height="52" class="key"/>
</g>
<g transform="translate(84, 50)" class="key keypos-1">
<rect rx="6" ry="6" x="-26" y="-26" width="52" height="52" class="key"/>
</g>
<g transform="translate(140, 39)" class="key keypos-2">
<rect rx="6" ry="6" x="-26" y="-26" width="52" height="52" class="key"/>
</g>
<g transform="translate(196, 28)" class="key keypos-3">
<rect rx="6" ry="6" x="-26" y="-26" width="52" height="52" class="key"/>
</g>
<g transform="translate(252, 39)" class="key keypos-4">
<rect rx="6" ry="6" x="-26" y="-26" width="52" height="52" class="key"/>
</g>
<g transform="translate(308, 50)" class="key keypos-5">
<rect rx="6" ry="6" x="-26" y="-26" width="52" height="52" class="key"/>
</g>
<g transform="translate(672, 50)" class="key keypos-6">
<rect rx="6" ry="6" x="-26" y="-26" width="52" height="52" class="key"/>
</g>
<g transform="translate(728, 39)" class="key keypos-7">
<rect rx="6" ry="6" x="-26" y="-26" width="52" height="52" class="key"/>
</g>
<g transform="translate(784, 28)" class="key keypos-8">
<rect rx="6" ry="6" x="-26" y="-26" width="52" height="52" class="key"/>
</g>
<g transform="translate(840, 39)" class="key keypos-9">
<rect rx="6" ry="6" x="-26" y="-26" width="52" height="52" class="key"/>
</g>
<g transform="translate(896, 50)" class="key keypos-10">
<rect rx="6" ry="6" x="-26" y="-26" width="52" height="52" class="key"/>
</g>
<g transform="translate(952, 73)" class="key keypos-11">
<rect rx="6" ry="6" x="-26" y="-26" width="52" height="52" class="key"/>
</g>
<g transform="translate(28, 129)" class="key keypos-12">
<rect rx="6" ry="6" x="-26" y="-26" width="52" height="52" class="key"/>
</g>
<g transform="translate(84, 106)" class="key keypos-13">
<rect rx="6" ry="6" x="-26" y="-26" width="52" height="52" class="key"/>
</g>
<g transform="translate(140, 95)" class="key keypos-14">
<rect rx="6" ry="6" x="-26" y="-26" width="52" height="52" class="key"/>
</g>
<g transform="translate(196, 84)" class="key keypos-15">
<rect rx="6" ry="6" x="-26" y="-26" width="52" height="52" class="key"/>
</g>
<g transform="translate(252, 95)" class="key keypos-16">
<rect rx="6" ry="6" x="-26" y="-26" width="52" height="52" class="key"/>
</g>
<g transform="translate(308, 106)" class="key keypos-17">
<rect rx="6" ry="6" x="-26" y="-26" width="52" height="52" class="key"/>
</g>
<g transform="translate(672, 106)" class="key keypos-18">
<rect rx="6" ry="6" x="-26" y="-26" width="52" height="52" class="key"/>
</g>
<g transform="translate(728, 95)" class="key keypos-19">
<rect rx="6" ry="6" x="-26" y="-26" width="52" height="52" class="key"/>
</g>
<g transform="translate(784, 84)" class="key keypos-20">
<rect rx="6" ry="6" x="-26" y="-26" width="52" height="52" class="key"/>
</g>
<g transform="translate(840, 95)" class="key keypos-21">
<rect rx="6" ry="6" x="-26" y="-26" width="52" height="52" class="key"/>
</g>
<g transform="translate(896, 106)" class="key keypos-22">
<rect rx="6" ry="6" x="-26" y="-26" width="52" height="52" class="key"/>
</g>
<g transform="translate(952, 129)" class="key keypos-23">
<rect rx="6" ry="6" x="-26" y="-26" width="52" height="52" class="key"/>
</g>
<g transform="translate(28, 185)" class="key keypos-24">
<rect rx="6" ry="6" x="-26" y="-26" width="52" height="52" class="key"/>
</g>
<g transform="translate(84, 162)" class="key keypos-25">
<rect rx="6" ry="6" x="-26" y="-26" width="52" height="52" class="key"/>
</g>
<g transform="translate(140, 151)" class="key keypos-26">
<rect rx="6" ry="6" x="-26" y="-26" width="52" height="52" class="key"/>
</g>
<g transform="translate(196, 140)" class="key keypos-27">
<rect rx="6" ry="6" x="-26" y="-26" width="52" height="52" class="key"/>
</g>
<g transform="translate(252, 151)" class="key keypos-28">
<rect rx="6" ry="6" x="-26" y="-26" width="52" height="52" class="key"/>
</g>
<g transform="translate(308, 162)" class="key keypos-29">
<rect rx="6" ry="6" x="-26" y="-26" width="52" height="52" class="key"/>
</g>
<g transform="translate(672, 162)" class="key keypos-30">
<rect rx="6" ry="6" x="-26" y="-26" width="52" height="52" class="key"/>
</g>
<g transform="translate(728, 151)" class="key keypos-31">
<rect rx="6" ry="6" x="-26" y="-26" width="52" height="52" class="key"/>
</g>
<g transform="translate(784, 140)" class="key keypos-32">
<rect rx="6" ry="6" x="-26" y="-26" width="52" height="52" class="key"/>
</g>
<g transform="translate(840, 151)" class="key keypos-33">
<rect rx="6" ry="6" x="-26" y="-26" width="52" height="52" class="key"/>
</g>
<g transform="translate(896, 162)" class="key keypos-34">
<rect rx="6" ry="6" x="-26" y="-26" width="52" height="52" class="key"/>
</g>
<g transform="translate(952, 185)" class="key keypos-35">
<rect rx="6" ry="6" x="-26" y="-26" width="52" height="52" class="key"/>
</g>
<g transform="translate(140, 207)" class="key keypos-36">
<rect rx="6" ry="6" x="-26" y="-26" width="52" height="52" class="key"/>
</g>
<g transform="translate(196, 196)" class="key keypos-37">
<rect rx="6" ry="6" x="-26" y="-26" width="52" height="52" class="key"/>
</g>
<g transform="translate(784, 196)" class="key keypos-38">
<rect rx="6" ry="6" x="-26" y="-26" width="52" height="52" class="key"/>
</g>
<g transform="translate(840, 207)" class="key keypos-39">
<rect rx="6" ry="6" x="-26" y="-26" width="52" height="52" class="key"/>
</g>
<g transform="translate(344, 232) rotate(15.0)" class="key keypos-40">
<rect rx="6" ry="6" x="-26" y="-26" width="52" height="52" class="key"/>
</g>
<g transform="translate(399, 255) rotate(20.0)" class="key keypos-41">
<rect rx="6" ry="6" x="-26" y="-26" width="52" height="52" class="key"/>
</g>
<g transform="translate(451, 279) rotate(25.0)" class="key keypos-42">
<rect rx="6" ry="6" x="-26" y="-26" width="52" height="52" class="key"/>
</g>
<g transform="translate(528, 277) rotate(-25.0)" class="key keypos-43">
<rect rx="6" ry="6" x="-26" y="-26" width="52" height="52" class="key"/>
</g>
<g transform="translate(581, 253) rotate(-20.0)" class="key keypos-44">
<rect rx="6" ry="6" x="-26" y="-26" width="52" height="52" class="key"/>
</g>
<g transform="translate(636, 232) rotate(-15.0)" class="key keypos-45">
<rect rx="6" ry="6" x="-26" y="-26" width="52" height="52" class="key"/>
</g>
<g transform="translate(327, 286) rotate(15.0)" class="key keypos-46">
<rect rx="6" ry="6" x="-26" y="-26" width="52" height="52" class="key"/>
</g>
<g transform="translate(380, 307) rotate(20.0)" class="key keypos-47">
<rect rx="6" ry="6" x="-26" y="-26" width="52" height="52" class="key"/>
</g>
<g transform="translate(432, 331) rotate(25.0)" class="key keypos-48">
<rect rx="6" ry="6" x="-26" y="-26" width="52" height="52" class="key"/>
</g>
<g transform="translate(547, 329) rotate(-25.0)" class="key keypos-49">
<rect rx="6" ry="6" x="-26" y="-26" width="52" height="52" class="key"/>
</g>
<g transform="translate(600, 306) rotate(-20.0)" class="key keypos-50">
<rect rx="6" ry="6" x="-26" y="-26" width="52" height="52" class="key"/>
</g>
<g transform="translate(653, 285) rotate(-15.0)" class="key keypos-51">
<rect rx="6" ry="6" x="-26" y="-26" width="52" height="52" class="key"/>
</g>
<g class="combo combopos-0">
<rect rx="6" ry="6" x="42" y="105" width="28" height="26" class="combo"/>
<text x="56" y="118" class="combo tap">Leader</text>
</g>
<g class="combo combopos-1">
<path d="M355,-32 h591 a6.0,6.0 0 0 1 6.0,6.0 v80" class="combo"/>
<path d="M355,-32 h-321 a6.0,6.0 0 0 0 -6.0,6.0 v136" class="combo"/>
<path d="M355,-32 h-265 a6.0,6.0 0 0 0 -6.0,6.0 v114" class="combo"/>
<rect rx="6" ry="6" x="341" y="-45" width="28" height="26" class="combo"/>
<text x="355" y="-32" class="combo tap">
<tspan x="355" dy="-0.6em">Shift+</tspan><tspan x="355" dy="1.2em">Leader</tspan>
</text>
</g>
</g>
</g>
</svg>
